<svg xmlns="http://www.w3.org/2000/svg" xmlns:xlink="http://www.w3.org/1999/xlink" width="0" height="0" style="position:absolute">
	
		<symbol id="icon-address-email" viewBox="0 0 10 9">
			<path d="M5 6.177c-.323 0-.646-.106-.921-.32L0 2.684v4.43c0 .517.42.937.938.937h8.124c.518 0 .938-.42.938-.938v-4.43L5.922 5.86c-.276.213-.6.318-.922.318zM.318 2.14l4.145 3.224a.875.875 0 0 0 1.075 0L9.683 2.14A.882.882 0 0 0 10 1.49a.938.938 0 0 0-.938-.938H.938A.937.937 0 0 0 0 1.49c0 .253.117.494.318.65z" fill="#fff"></path>
		</symbol>
	
		<symbol id="icon-address-phone" viewBox="0 0 10 11">
			<path d="M9.984 7.86L9.53 9.83a.607.607 0 0 1-.595.472C4.008 10.302 0 6.294 0 1.366 0 1.08.195.836.473.772L2.442.317a.613.613 0 0 1 .699.354l.908 2.12c.106.25.035.54-.175.711l-1.052.845a6.83 6.83 0 0 0 3.115 3.115l.861-1.05a.608.608 0 0 1 .713-.176l2.119.908c.255.134.42.431.354.716z" fill="#fff"></path>
		</symbol>
	
		<symbol id="icon-address-place" viewBox="0 0 9 11">
			<path d="M4.5.802a4.042 4.042 0 0 0-2.827 1.152A3.898 3.898 0 0 0 .5 4.731c0 3.361 3.636 5.902 3.79 6.009a.382.382 0 0 0 .42 0c.154-.107 3.79-2.648 3.79-6.01a3.898 3.898 0 0 0-1.173-2.776A4.042 4.042 0 0 0 4.5.802zm0 2.5c.288 0 .569.084.808.24.24.158.426.381.536.642a1.405 1.405 0 0 1-.315 1.557 1.48 1.48 0 0 1-1.585.31 1.45 1.45 0 0 1-.653-.527 1.41 1.41 0 0 1 .18-1.803A1.468 1.468 0 0 1 4.5 3.302z" fill="#fff"></path>
		</symbol>
	
		<symbol id="icon-arrow-button-catalog" viewBox="0 0 10 7">
			<path d="M1 1.5l4 4 4-4" stroke="#fff" stroke-width="1.5" stroke-linecap="round"></path>
		</symbol>
	
		<symbol id="icon-arrow-change-city" viewBox="0 0 6 4">
			<path d="M1 .5l2 2 2-2" stroke="#2F3239" stroke-linecap="round"></path>
		</symbol>
	
		<symbol id="icon-authorization" viewBox="0 0 30 31">
			<path d="M14.927 29.354c7.692 0 13.927-6.235 13.927-13.927C28.854 7.735 22.62 1.5 14.927 1.5 7.235 1.5 1 7.735 1 15.427c0 7.692 6.235 13.927 13.927 13.927z"></path><path d="M14.928 19.073a5.549 5.549 0 1 0 0-11.098 5.549 5.549 0 0 0 0 11.098z"></path><path d="M6.5 26.512c.52-4.19 4.096-7.44 8.426-7.44s7.907 3.25 8.426 7.44"></path>
		</symbol>
	
		<symbol id="icon-basket" viewBox="0 0 30 31">
			<path d="M20.849 6.616a5.99 5.99 0 0 1-5.987 5.987 5.99 5.99 0 0 1-5.987-5.987"></path><path clip-rule="evenodd" d="M27.268 7.795a5.505 5.505 0 0 0-5.503-5.363H8.158a5.505 5.505 0 0 0-5.503 5.363l-.397 15.491a5.008 5.008 0 0 0 5.006 5.137H22.66a5.008 5.008 0 0 0 5.006-5.137l-.397-15.49z"></path>
		</symbol>
	
		<symbol id="icon-faq-change" viewBox="0 0 22 13">
			<path d="M1 1.5l10 10 10-10"></path>
		</symbol>
	
		<symbol id="icon-favorite" viewBox="0 0 30 31">
			<path d="M14.4 7.35l.6.799.6-.8c1.218-1.621 3.098-2.599 5.142-2.599 3.567 0 6.508 2.994 6.508 6.72 0 1.856-.72 3.578-1.999 4.843l-.005.006-.006.006-10.041 10.39-.199.206-.199-.205L4.57 16.129A6.806 6.806 0 0 1 2.75 11.47c0-3.726 2.941-6.72 6.508-6.72 2.044 0 3.924.978 5.142 2.6z"></path>
		</symbol>
	
		<symbol id="icon-form-attach" viewBox="0 0 14 24">
			<path d="M1.002 23V6.54C1.002 3.4 3.637.857 6.888.857c3.25 0 5.885 2.544 5.885 5.683v12.494c0 2.19-1.84 3.967-4.108 3.967-2.27 0-4.109-1.776-4.109-3.967V6.58c0-1.258 1.056-2.278 2.36-2.278.625 0 1.225.24 1.668.667.442.427.69 1.006.69 1.61v13.197" stroke="#4D31C8" stroke-miterlimit="1.5" stroke-linecap="round" stroke-linejoin="round"></path>
		</symbol>
	
		<symbol id="icon-menu-mobile" viewBox="0 0 24 25">
			<path d="M3 7h19M3 13h19M3 19h19" stroke="#2F3239" stroke-linecap="round"></path>
		</symbol>
	
		<symbol id="icon-slider-next" viewBox="0 0 13 22">
			<path d="M1 21l10-10L1 1"></path>
		</symbol>
	
		<symbol id="icon-slider-prev" viewBox="0 0 13 22">
			<path d="M12 1L2 11l10 10"></path>
		</symbol>
	
</svg>
