<svg xmlns="http://www.w3.org/2000/svg" xmlns:xlink="http://www.w3.org/1999/xlink" width="0" height="0" style="position:absolute">
	
		<symbol id="icon-address-email" viewBox="0 0 10 9">
			<path d="M5 6.177c-.323 0-.646-.106-.921-.32L0 2.684v4.43c0 .517.42.937.938.937h8.124c.518 0 .938-.42.938-.938v-4.43L5.922 5.86c-.276.213-.6.318-.922.318zM.318 2.14l4.145 3.224a.875.875 0 0 0 1.075 0L9.683 2.14A.882.882 0 0 0 10 1.49a.938.938 0 0 0-.938-.938H.938A.937.937 0 0 0 0 1.49c0 .253.117.494.318.65z" fill="#fff"></path>
		</symbol>
	
		<symbol id="icon-address-phone" viewBox="0 0 10 11">
			<path d="M9.984 7.86L9.53 9.83a.607.607 0 0 1-.595.472C4.008 10.302 0 6.294 0 1.366 0 1.08.195.836.473.772L2.442.317a.613.613 0 0 1 .699.354l.908 2.12c.106.25.035.54-.175.711l-1.052.845a6.83 6.83 0 0 0 3.115 3.115l.861-1.05a.608.608 0 0 1 .713-.176l2.119.908c.255.134.42.431.354.716z" fill="#fff"></path>
		</symbol>
	
		<symbol id="icon-address-place" viewBox="0 0 9 11">
			<path d="M4.5.802a4.042 4.042 0 0 0-2.827 1.152A3.898 3.898 0 0 0 .5 4.731c0 3.361 3.636 5.902 3.79 6.009a.382.382 0 0 0 .42 0c.154-.107 3.79-2.648 3.79-6.01a3.898 3.898 0 0 0-1.173-2.776A4.042 4.042 0 0 0 4.5.802zm0 2.5c.288 0 .569.084.808.24.24.158.426.381.536.642a1.405 1.405 0 0 1-.315 1.557 1.48 1.48 0 0 1-1.585.31 1.45 1.45 0 0 1-.653-.527 1.41 1.41 0 0 1 .18-1.803A1.468 1.468 0 0 1 4.5 3.302z" fill="#fff"></path>
		</symbol>
	
		<symbol id="icon-arrow-button-catalog" viewBox="0 0 10 7">
			<path d="M1 1.5l4 4 4-4" stroke="#fff" stroke-width="1.5" stroke-linecap="round"></path>
		</symbol>
	
		<symbol id="icon-arrow-change-city" viewBox="0 0 6 4">
			<path d="M1 .5l2 2 2-2" stroke="#2F3239" stroke-linecap="round"></path>
		</symbol>
	
		<symbol id="icon-authorization" viewBox="0 0 30 31">
			<path d="M14.927 29.354c7.692 0 13.927-6.235 13.927-13.927C28.854 7.735 22.62 1.5 14.927 1.5 7.235 1.5 1 7.735 1 15.427c0 7.692 6.235 13.927 13.927 13.927z"></path><path d="M14.928 19.073a5.549 5.549 0 1 0 0-11.098 5.549 5.549 0 0 0 0 11.098z"></path><path d="M6.5 26.512c.52-4.19 4.096-7.44 8.426-7.44s7.907 3.25 8.426 7.44"></path>
		</symbol>
	
		<symbol id="icon-basket" viewBox="0 0 30 31">
			<path d="M20.849 6.616a5.99 5.99 0 0 1-5.987 5.987 5.99 5.99 0 0 1-5.987-5.987"></path><path clip-rule="evenodd" d="M27.268 7.795a5.505 5.505 0 0 0-5.503-5.363H8.158a5.505 5.505 0 0 0-5.503 5.363l-.397 15.491a5.008 5.008 0 0 0 5.006 5.137H22.66a5.008 5.008 0 0 0 5.006-5.137l-.397-15.49z"></path>
		</symbol>
	
		<symbol id="icon-basket-advantages-delivery" viewBox="0 0 24 24">
			<path d="M19.944 1H4.056A3.06 3.06 0 0 0 1 4.056v15.888A3.059 3.059 0 0 0 4.056 23h15.888A3.058 3.058 0 0 0 23 19.944V4.056A3.06 3.06 0 0 0 19.944 1zm-5.5 1.222v6.111H9.556v-6.11h4.888zm7.334 17.722a1.836 1.836 0 0 1-1.834 1.834H4.056a1.836 1.836 0 0 1-1.834-1.834V4.056a1.835 1.835 0 0 1 1.834-1.834h4.277v6.722a.611.611 0 0 0 .611.612h6.112a.611.611 0 0 0 .61-.612V2.222h4.278a1.835 1.835 0 0 1 1.834 1.834v15.888z" fill="#fff"></path>
		</symbol>
	
		<symbol id="icon-basket-advantages-price" viewBox="0 0 24 24">
			<g clip-path="url(#a)" stroke="#fff" stroke-miterlimit="1.5" stroke-linecap="round" stroke-linejoin="round"><path d="M18.48 7.27a1.68 1.68 0 1 0 0-3.36 1.68 1.68 0 0 0 0 3.36z"></path><path clip-rule="evenodd" d="M22.348 12.257a3.343 3.343 0 0 0 .983-2.48l-.25-7.518A1.396 1.396 0 0 0 21.729.913L14.18.663a3.371 3.371 0 0 0-2.49.98L1.18 12.108a1.66 1.66 0 0 0 0 2.352l8.296 8.263a1.673 1.673 0 0 0 2.362 0l10.509-10.467z"></path></g><defs><clipPath id="a"><path fill="#fff" d="M0 0h24v24H0z"></path></clipPath></defs>
		</symbol>
	
		<symbol id="icon-basket-del" viewBox="0 0 21 22">
			<path d="M1 4.202h19.115M3.533 4.202l.852 14.374a2.398 2.398 0 0 0 2.394 2.256h7.559c1.269 0 2.318-.989 2.393-2.256l.852-14.374M7.47 7.786v9.701M10.558 7.786v9.701M13.645 7.786v9.701" stroke="#2F3239" stroke-miterlimit="1.5" stroke-linecap="round" stroke-linejoin="round"></path><path d="M7.117 4.202V2.577c0-.87.706-1.577 1.577-1.577h3.728c.87 0 1.577.706 1.577 1.577v1.625" stroke="#2F3239" stroke-width=".826" stroke-miterlimit="1.5" stroke-linecap="round" stroke-linejoin="round"></path>
		</symbol>
	
		<symbol id="icon-basket-empty" viewBox="0 0 107 149">
			<path d="M76.95 26.012c0 18.174-10.657 32.929-23.784 32.929-13.127 0-23.785-14.755-23.785-32.928" stroke="#CDD3E2" stroke-width="5" stroke-miterlimit="1.5" stroke-linecap="round" stroke-linejoin="round"></path><path clip-rule="evenodd" d="M102.45 32.5C102.145 16.086 92.446 3 80.586 3H26.53C14.67 3 4.971 16.086 4.668 32.5 4.205 57.49 3.545 93.075 3.09 117.701c-.138 7.425 1.896 14.613 5.64 19.932 3.746 5.32 8.884 8.319 14.25 8.319h61.158c5.366 0 10.504-2.999 14.249-8.319 3.745-5.319 5.779-12.507 5.641-19.932-.455-24.626-1.115-60.212-1.578-85.2z" stroke="#CDD3E2" stroke-width="5" stroke-miterlimit="1.5" stroke-linecap="round" stroke-linejoin="round"></path>
		</symbol>
	
		<symbol id="icon-basket-info-order" viewBox="0 0 24 24">
			<path d="M16.68 4.893a4.792 4.792 0 0 1-4.79 4.79 4.792 4.792 0 0 1-4.79-4.79" stroke="#8D95AA" stroke-width="1.5" stroke-miterlimit="1.5" stroke-linecap="round" stroke-linejoin="round"></path><path clip-rule="evenodd" d="M21.814 5.836a4.404 4.404 0 0 0-4.402-4.29H6.526a4.404 4.404 0 0 0-4.402 4.29L1.806 18.23a4.006 4.006 0 0 0 4.005 4.11h12.316a4.006 4.006 0 0 0 4.005-4.11l-.318-12.393z" stroke="#8D95AA" stroke-width="1.5" stroke-miterlimit="1.5" stroke-linecap="round" stroke-linejoin="round"></path>
		</symbol>
	
		<symbol id="icon-basket-info-payment" viewBox="0 0 25 24">
			<g clip-path="url(#a)"><path fill-rule="evenodd" clip-rule="evenodd" d="M23.833 20a2.5 2.5 0 0 1-2.5 2.5h-18a2.5 2.5 0 0 1-2.5-2.5V5.5a2 2 0 0 1 2-2h10.085l4.05-1.467a.495.495 0 0 1 .634.294l.427 1.173h1.804a2 2 0 0 1 2 2v1a2 2 0 0 1 2 2V20zm-21-15.5a1 1 0 0 0 0 2H4.65c.007-.003.01-.008.017-.01l5.491-1.99H2.833zm14.539.09l-.531-1.462-1.026.372h.002l-2.758 1h-.004l-5.52 2h10.531l-.694-1.91zm3.461.91a1 1 0 0 0-1-1h-1.441l.727 2h1.714v-1zm1 2h-19c-.366 0-.705-.106-1-.278V20a1.5 1.5 0 0 0 1.5 1.5h18a1.5 1.5 0 0 0 1.5-1.5v-3.5h-2a2 2 0 0 1 0-4h2v-4a1 1 0 0 0-1-1zm1 8v-2h-2a1 1 0 0 0 0 2h2zm-2-1.5h1v1h-1v-1z" fill="#8D95AA"></path></g><defs><clipPath id="a"><path fill="#fff" transform="translate(.333)" d="M0 0h24v24H0z"></path></clipPath></defs>
		</symbol>
	
		<symbol id="icon-basket-info-secure" viewBox="0 0 25 24">
			<path d="M12.667 1.5l-9.75 3.21V9c0 10.957 9.473 13.455 9.57 13.5h.18l.18-.045c.098 0 9.57-2.52 9.57-13.5V4.71l-9.75-3.21zm8.25 7.5c0 9.075-6.983 11.587-8.25 12-1.268-.413-8.25-2.925-8.25-12V5.79l8.25-2.752 8.25 2.752V9z" fill="#8D95AA"></path><path d="M9.36 11.25l-1.065 1.057 1.717 1.718a1.501 1.501 0 0 0 1.065.442 1.5 1.5 0 0 0 1.058-.442l4.905-4.898-1.065-1.065-4.898 4.905L9.36 11.25z" fill="#8D95AA"></path>
		</symbol>
	
		<symbol id="icon-basket-place" viewBox="0 0 16 17">
			<g clip-path="url(#a)"><path fill-rule="evenodd" clip-rule="evenodd" d="M2 6.5v.293c0 1.429.486 2.815 1.379 3.93L8 16.5l4.621-5.776A6.292 6.292 0 0 0 14 6.793V6.5a6 6 0 0 0-12 0zm6 2a2 2 0 1 0 0-4 2 2 0 0 0 0 4z" fill="#8D95AA"></path></g><defs><clipPath id="a"><path fill="#fff" transform="translate(0 .5)" d="M0 0h16v16H0z"></path></clipPath></defs>
		</symbol>
	
		<symbol id="icon-close-notification" viewBox="0 0 22 22">
			<path d="M1 1l20 20M21 1L1 21"></path>
		</symbol>
	
		<symbol id="icon-faq-change" viewBox="0 0 22 13">
			<path d="M1 1.5l10 10 10-10"></path>
		</symbol>
	
		<symbol id="icon-favorite" viewBox="0 0 30 31">
			<path d="M14.4 7.35l.6.799.6-.8c1.218-1.621 3.098-2.599 5.142-2.599 3.567 0 6.508 2.994 6.508 6.72 0 1.856-.72 3.578-1.999 4.843l-.005.006-.006.006-10.041 10.39-.199.206-.199-.205L4.57 16.129A6.806 6.806 0 0 1 2.75 11.47c0-3.726 2.941-6.72 6.508-6.72 2.044 0 3.924.978 5.142 2.6z"></path>
		</symbol>
	
		<symbol id="icon-form-attach" viewBox="0 0 14 24">
			<path d="M1.002 23V6.54C1.002 3.4 3.637.857 6.888.857c3.25 0 5.885 2.544 5.885 5.683v12.494c0 2.19-1.84 3.967-4.108 3.967-2.27 0-4.109-1.776-4.109-3.967V6.58c0-1.258 1.056-2.278 2.36-2.278.625 0 1.225.24 1.668.667.442.427.69 1.006.69 1.61v13.197" stroke="#4D31C8" stroke-miterlimit="1.5" stroke-linecap="round" stroke-linejoin="round"></path>
		</symbol>
	
		<symbol id="icon-menu-mobile" viewBox="0 0 24 25">
			<path d="M3 7h19M3 13h19M3 19h19"></path>
		</symbol>
	
		<symbol id="icon-profile-link" viewBox="0 0 20 21">
			<path d="M8.682 3.986H4.018a1.982 1.982 0 0 0-1.983 1.982v10.46a1.982 1.982 0 0 0 1.983 1.983h10.46a1.982 1.982 0 0 0 1.982-1.983V12.08M11.416 2.535h6.546V9.25M17.962 2.535l-10.41 10.41" stroke="#4D31C8" stroke-width="1.5" stroke-miterlimit="1.5" stroke-linecap="round" stroke-linejoin="round"></path>
		</symbol>
	
		<symbol id="icon-slider-next" viewBox="0 0 13 22">
			<path d="M1 21l10-10L1 1"></path>
		</symbol>
	
		<symbol id="icon-slider-prev" viewBox="0 0 13 22">
			<path d="M12 1L2 11l10 10"></path>
		</symbol>
	
</svg>
