<svg width="120" height="40" viewBox="0 0 120 40" fill="none" xmlns="http://www.w3.org/2000/svg">
<g clip-path="url(#clip0_20_3549)">
<path fill-rule="evenodd" clip-rule="evenodd" d="M15.6715 4.71842L17.7446 0H19.9415H22.1046L24.1274 4.67617C25.3903 5.0211 26.5899 5.51955 27.7047 6.15021L32.455 4.29974L34.0086 5.85266L35.5381 7.38174L33.6645 12.109C34.2947 13.2228 34.7929 14.4211 35.1377 15.6828L39.8154 17.7049V19.8672V22.0634L35.0954 24.1357C34.7467 25.3627 34.2526 26.5285 33.6328 27.6134L35.5381 32.4202L34.0085 33.9493L31.0448 30.9866L34.0085 33.9493L32.455 35.5023L27.5621 33.5962C26.5075 34.1784 25.3788 34.643 24.1938 34.9723L22.1046 39.802H19.9415H17.7446L15.6036 34.9289C14.4539 34.5967 13.3584 34.1369 12.3335 33.5657L7.38435 35.526L5.8548 33.997L4.3013 32.444L6.23884 27.4734C5.66725 26.4487 5.20708 25.3533 4.87473 24.2036L0 22.0634V19.8673V17.7049L4.83128 15.6164C5.16067 14.4317 5.62544 13.3034 6.20783 12.2492L4.30124 7.358L5.85469 5.805L7.38429 4.27596L12.1927 6.18049C13.2779 5.56098 14.4441 5.067 15.6715 4.71842ZM21.4664 14.8286L29.0648 14.6874L28.9805 10.1549L21.3822 10.2961C15.9278 10.3975 11.5637 14.8511 11.5637 20.3047V29.4209H16.0985V20.3047C16.0985 17.3168 18.4884 14.8839 21.4664 14.8286ZM19.2509 22.2096H24.5371C24.0757 23.8763 22.5495 25.0973 20.7418 25.0973H19.2509V29.6306H20.7418C25.4239 29.6306 29.2148 25.8324 29.2148 21.1529V19.9429V17.6763H26.9474H19.2509V22.2096Z" fill="#FF7441"/>
<path fill-rule="evenodd" clip-rule="evenodd" d="M15.6715 4.71842L17.7446 0H19.9415H22.1046L24.1274 4.67617C25.3903 5.0211 26.5899 5.51955 27.7047 6.15021L32.455 4.29974L34.0086 5.85266L35.5381 7.38174L33.6645 12.109C34.2947 13.2228 34.7929 14.4211 35.1377 15.6828L39.8154 17.7049V19.8672V22.0634L35.0954 24.1357C34.7467 25.3627 34.2526 26.5285 33.6328 27.6134L35.5381 32.4202L34.0085 33.9493L31.0448 30.9866L34.0085 33.9493L32.455 35.5023L27.5621 33.5962C26.5075 34.1784 25.3788 34.643 24.1938 34.9723L22.1046 39.802H19.9415H17.7446L15.6036 34.9289C14.4539 34.5967 13.3584 34.1369 12.3335 33.5657L7.38435 35.526L5.8548 33.997L4.3013 32.444L6.23884 27.4734C5.66725 26.4487 5.20708 25.3533 4.87473 24.2036L0 22.0634V19.8673V17.7049L4.83128 15.6164C5.16067 14.4317 5.62544 13.3034 6.20783 12.2492L4.30124 7.358L5.85469 5.805L7.38429 4.27596L12.1927 6.18049C13.2779 5.56098 14.4441 5.067 15.6715 4.71842ZM21.4664 14.8286L29.0648 14.6874L28.9805 10.1549L21.3822 10.2961C15.9278 10.3975 11.5637 14.8511 11.5637 20.3047V29.4209H16.0985V20.3047C16.0985 17.3168 18.4884 14.8839 21.4664 14.8286ZM19.2509 22.2096H24.5371C24.0757 23.8763 22.5495 25.0973 20.7418 25.0973H19.2509V29.6306H20.7418C25.4239 29.6306 29.2148 25.8324 29.2148 21.1529V19.9429V17.6763H26.9474H19.2509V22.2096Z" fill="#FF7441"/>
<path d="M59.4435 17.5138C59.4435 17.1534 59.2558 16.966 58.8809 16.9516H51.31C51.0361 16.966 50.7981 17.0885 50.5962 17.3192C50.3943 17.5354 50.2429 17.7949 50.142 18.0976C50.0554 18.3859 50.0122 18.6815 50.0122 18.9843C50.0122 19.2726 50.0554 19.5681 50.142 19.8708C50.2429 20.1591 50.3943 20.4186 50.5962 20.6493C50.7981 20.8655 51.0361 20.9736 51.31 20.9736H56.8475C57.2512 20.9736 57.5901 21.1178 57.8642 21.4061C58.1527 21.68 58.2967 22.0188 58.2967 22.4224C58.2967 22.8261 58.1527 23.1648 57.8642 23.4388C57.5901 23.7271 57.2512 23.8713 56.8475 23.8713H51.3966C50.3871 23.8568 49.5507 23.5757 48.8873 23.0279C48.2384 22.4657 47.7697 21.8386 47.4813 21.1466C47.2073 20.4403 47.0703 19.7123 47.0703 18.9626C47.0703 18.2418 47.2145 17.5354 47.5029 16.8435C47.7914 16.1371 48.26 15.51 48.909 14.9621C49.5579 14.3999 50.5169 14.0972 51.7859 14.054H60.8711C61.2748 14.054 61.6209 14.1909 61.9094 14.4648C62.198 14.7243 62.3491 15.0559 62.3635 15.4595V22.2927C62.3635 23.4459 62.2052 24.5344 61.8878 25.5579C61.5993 26.4661 61.1237 27.2302 60.4603 27.8501C59.8112 28.4844 58.9817 28.8303 57.9728 28.888H50.4881C50.0987 28.8736 49.767 28.7294 49.493 28.4555C49.2334 28.1961 49.0965 27.8717 49.082 27.4824C49.082 27.0788 49.2118 26.7328 49.4714 26.4445C49.7454 26.1562 50.0843 26.0048 50.4881 25.9904H57.2368C57.785 25.9616 58.2391 25.7525 58.5996 25.3633C58.9601 24.9741 59.191 24.52 59.2918 24.001C59.3932 23.482 59.4435 22.8117 59.4435 21.9899V17.5138Z" fill="white"/>
<path d="M77.3752 22.7252V17.5138C77.3752 17.1534 77.1875 16.966 76.8126 16.9516H69.2416C68.9674 16.966 68.7299 17.0885 68.5278 17.3192C68.3256 17.5354 68.1745 17.7949 68.0737 18.0976C67.9867 18.3859 67.9435 18.6815 67.9435 18.9843C67.9435 19.2726 67.9867 19.5681 68.0737 19.8708C68.1745 20.1591 68.3256 20.4186 68.5278 20.6493C68.7299 20.8655 68.9674 20.9736 69.2416 20.9736H74.7792C75.1829 20.9736 75.5218 21.1178 75.7959 21.4061C76.0844 21.68 76.2284 22.0188 76.2284 22.4224C76.2284 22.8261 76.0844 23.1648 75.7959 23.4388C75.5218 23.7271 75.1829 23.8713 74.7792 23.8713H69.3279C68.3184 23.8568 67.4823 23.5757 66.8188 23.0279C66.1698 22.4657 65.7014 21.8386 65.4128 21.1466C65.1387 20.4403 65.002 19.7123 65.002 18.9626C65.002 18.2418 65.1459 17.5354 65.4344 16.8435C65.723 16.1371 66.1914 15.51 66.8404 14.9621C67.4895 14.3999 68.4486 14.0972 69.7172 14.054H78.8028C79.2065 14.054 79.5526 14.1909 79.8411 14.4648C80.1296 14.7243 80.2808 15.0559 80.2952 15.4595V22.7252C80.2952 23.1288 80.144 23.4676 79.8411 23.7415C79.5526 24.001 79.2065 24.1307 78.8028 24.1307C77.9373 24.0586 77.4616 23.5902 77.3752 22.7252Z" fill="white"/>
<path d="M89.9862 13.7295C90.736 13.7295 91.4714 13.816 92.1924 13.989C92.9278 14.1619 93.6278 14.4215 94.2906 14.7674C94.954 15.099 95.5382 15.5459 96.0433 16.1081C96.5622 16.6704 96.8435 17.3407 96.8867 18.1191V22.7251C96.8003 23.59 96.324 24.0585 95.4591 24.1306C95.0554 24.1306 94.7021 24.0008 94.3992 23.7414C94.1106 23.4675 93.9667 23.1287 93.9667 22.7251V18.7895C93.9373 18.3426 93.7645 17.975 93.4472 17.6867C93.1443 17.3839 92.7982 17.146 92.4089 16.973C92.034 16.8001 91.6376 16.6704 91.2195 16.5838C90.8152 16.4974 90.4043 16.4541 89.9862 16.4541C89.5681 16.4541 89.1501 16.4974 88.7314 16.5838C88.3277 16.6704 87.9312 16.8001 87.5419 16.973C87.167 17.146 86.8209 17.3839 86.5036 17.6867C86.2007 17.975 86.0352 18.3426 86.0058 18.7895V22.7251C85.9338 23.59 85.4653 24.0585 84.5998 24.1306C84.1961 24.1306 83.8428 24.0008 83.5399 23.7414C83.2519 23.4675 83.1074 23.1287 83.1074 22.7251V18.1191C83.1506 17.3407 83.4247 16.6704 83.9292 16.1081C84.4342 15.5459 85.0185 15.099 85.6819 14.7674C86.3447 14.4215 87.0369 14.1619 87.7585 13.989C88.4939 13.816 89.2364 13.7295 89.9862 13.7295Z" fill="white"/>
<path d="M104.327 10.7671C104.731 10.7671 105.078 10.904 105.365 11.178C105.654 11.4374 105.806 11.769 105.82 12.1727V14.0539H113.175C113.578 14.0539 113.924 14.1909 114.213 14.4648C114.487 14.7531 114.624 15.0991 114.624 15.5028C114.624 15.9064 114.48 16.2524 114.191 16.5407C113.917 16.8146 113.578 16.9516 113.175 16.9516H105.82V17.384C105.806 17.9751 105.842 18.5229 105.928 19.0275C106.029 19.5176 106.26 19.9573 106.62 20.3465C106.981 20.7357 107.435 20.9448 107.983 20.9736H113.261C113.665 20.988 113.996 21.1394 114.256 21.4277C114.53 21.716 114.667 22.062 114.667 22.4657C114.653 22.8549 114.509 23.1865 114.235 23.4604C113.975 23.7198 113.65 23.8568 113.261 23.8712H107.248C106.238 23.8136 105.402 23.4748 104.739 22.8549C104.09 22.2206 103.621 21.4494 103.333 20.5411C103.059 19.6329 102.914 18.667 102.9 17.6435V16.9516H100.412C100.008 16.9516 99.6695 16.8074 99.3954 16.5191C99.1069 16.2451 98.9629 15.9064 98.9629 15.5028C98.9629 15.0991 99.0997 14.7603 99.3738 14.4864C99.6623 14.1981 100.008 14.0539 100.412 14.0539H102.9V12.1727C102.914 11.7834 103.059 11.4591 103.333 11.1995C103.606 10.9257 103.938 10.7815 104.327 10.7671Z" fill="white"/>
<path d="M118.237 13.8377C118.627 13.8521 118.958 13.9963 119.232 14.2702C119.506 14.5297 119.651 14.854 119.665 15.2432V22.7252C119.579 23.5901 119.102 24.0586 118.237 24.1307C117.833 24.1307 117.48 24.0009 117.177 23.7415C116.889 23.4676 116.744 23.1288 116.744 22.7252V15.2432C116.759 14.8396 116.911 14.508 117.199 14.2486C117.487 13.9747 117.833 13.8377 118.237 13.8377ZM116.42 11.0266C116.42 10.6229 116.593 10.277 116.939 9.98866C117.285 9.7003 117.704 9.55615 118.194 9.55615C118.684 9.55615 119.102 9.7003 119.448 9.98866C119.795 10.277 119.968 10.6229 119.968 11.0266C119.968 11.4447 119.795 11.7979 119.448 12.0862C119.102 12.3745 118.684 12.5187 118.194 12.5187C117.704 12.5187 117.285 12.3745 116.939 12.0862C116.593 11.7979 116.42 11.4447 116.42 11.0266Z" fill="white"/>
</g>
<defs>
<clipPath id="clip0_20_3549">
<rect width="120" height="39.802" fill="white"/>
</clipPath>
</defs>
</svg>
