<svg width="120" height="41" viewBox="0 0 120 41" fill="none" xmlns="http://www.w3.org/2000/svg">
<g clip-path="url(#clip0_3_229)">
<path fill-rule="evenodd" clip-rule="evenodd" d="M15.6715 5.31743L17.7446 0.59901H19.9415H22.1046L24.1274 5.27518C25.3903 5.62011 26.5899 6.11856 27.7047 6.74922L32.455 4.89875L34.0086 6.45167L35.5381 7.98076L33.6645 12.708C34.2947 13.8218 34.7929 15.0201 35.1377 16.2818L39.8154 18.3039V20.4662V22.6624L35.0954 24.7347C34.7467 25.9617 34.2526 27.1276 33.6328 28.2124L35.5381 33.0192L34.0085 34.5483L31.0448 31.5856L34.0085 34.5483L32.455 36.1013L27.5621 34.1953C26.5075 34.7775 25.3788 35.242 24.1938 35.5713L22.1046 40.401H19.9415H17.7446L15.6036 35.5279C14.4539 35.1957 13.3584 34.7359 12.3335 34.1647L7.38435 36.125L5.8548 34.596L4.3013 33.043L6.23884 28.0725C5.66725 27.0477 5.20708 25.9523 4.87473 24.8027L0 22.6624V20.4663V18.3039L4.83128 16.2154C5.16067 15.0307 5.62544 13.9024 6.20783 12.8482L4.30124 7.95701L5.85469 6.40401L7.38429 4.87497L12.1927 6.7795C13.2779 6.15999 14.4441 5.66601 15.6715 5.31743ZM21.4664 15.4276L29.0648 15.2864L28.9805 10.7539L21.3822 10.8951C15.9278 10.9965 11.5637 15.4501 11.5637 20.9037V30.0199H16.0985V20.9037C16.0985 17.9159 18.4884 15.483 21.4664 15.4276ZM19.2509 22.8086H24.5371C24.0757 24.4753 22.5495 25.6963 20.7418 25.6963H19.2509V30.2296H20.7418C25.4239 30.2296 29.2148 26.4314 29.2148 21.7519V20.542V18.2754H26.9474H19.2509V22.8086Z" fill="#FF7441"/>
<path fill-rule="evenodd" clip-rule="evenodd" d="M15.6715 5.31743L17.7446 0.59901H19.9415H22.1046L24.1274 5.27518C25.3903 5.62011 26.5899 6.11856 27.7047 6.74922L32.455 4.89875L34.0086 6.45167L35.5381 7.98076L33.6645 12.708C34.2947 13.8218 34.7929 15.0201 35.1377 16.2818L39.8154 18.3039V20.4662V22.6624L35.0954 24.7347C34.7467 25.9617 34.2526 27.1276 33.6328 28.2124L35.5381 33.0192L34.0085 34.5483L31.0448 31.5856L34.0085 34.5483L32.455 36.1013L27.5621 34.1953C26.5075 34.7775 25.3788 35.242 24.1938 35.5713L22.1046 40.401H19.9415H17.7446L15.6036 35.5279C14.4539 35.1957 13.3584 34.7359 12.3335 34.1647L7.38435 36.125L5.8548 34.596L4.3013 33.043L6.23884 28.0725C5.66725 27.0477 5.20708 25.9523 4.87473 24.8027L0 22.6624V20.4663V18.3039L4.83128 16.2154C5.16067 15.0307 5.62544 13.9024 6.20783 12.8482L4.30124 7.95701L5.85469 6.40401L7.38429 4.87497L12.1927 6.7795C13.2779 6.15999 14.4441 5.66601 15.6715 5.31743ZM21.4664 15.4276L29.0648 15.2864L28.9805 10.7539L21.3822 10.8951C15.9278 10.9965 11.5637 15.4501 11.5637 20.9037V30.0199H16.0985V20.9037C16.0985 17.9159 18.4884 15.483 21.4664 15.4276ZM19.2509 22.8086H24.5371C24.0757 24.4753 22.5495 25.6963 20.7418 25.6963H19.2509V30.2296H20.7418C25.4239 30.2296 29.2148 26.4314 29.2148 21.7519V20.542V18.2754H26.9474H19.2509V22.8086Z" fill="#FF7441"/>
<path d="M59.4435 18.1127C59.4435 17.7523 59.2558 17.5649 58.8809 17.5505H51.31C51.0361 17.5649 50.7981 17.6875 50.5962 17.9181C50.3943 18.1344 50.2429 18.3938 50.142 18.6966C50.0554 18.9849 50.0122 19.2804 50.0122 19.5832C50.0122 19.8715 50.0554 20.167 50.142 20.4697C50.2429 20.758 50.3943 21.0175 50.5962 21.2482C50.7981 21.4644 51.0361 21.5726 51.31 21.5726H56.8475C57.2512 21.5726 57.5901 21.7167 57.8642 22.0051C58.1527 22.2789 58.2967 22.6177 58.2967 23.0214C58.2967 23.425 58.1527 23.7638 57.8642 24.0377C57.5901 24.326 57.2512 24.4702 56.8475 24.4702H51.3966C50.3871 24.4557 49.5507 24.1746 48.8873 23.6268C48.2384 23.0646 47.7697 22.4375 47.4813 21.7455C47.2073 21.0392 47.0703 20.3112 47.0703 19.5615C47.0703 18.8407 47.2145 18.1344 47.5029 17.4424C47.7914 16.736 48.26 16.1089 48.909 15.5611C49.5579 14.9989 50.5169 14.6961 51.7859 14.6529H60.8711C61.2748 14.6529 61.6209 14.7898 61.9094 15.0637C62.198 15.3232 62.3491 15.6548 62.3635 16.0585V22.8916C62.3635 24.0449 62.2052 25.1333 61.8878 26.1569C61.5993 27.0651 61.1237 27.8291 60.4603 28.449C59.8112 29.0833 58.9817 29.4293 57.9728 29.4869H50.4881C50.0987 29.4725 49.767 29.3283 49.493 29.0544C49.2334 28.795 49.0965 28.4706 49.082 28.0814C49.082 27.6777 49.2118 27.3317 49.4714 27.0434C49.7454 26.7551 50.0843 26.6037 50.4881 26.5893H57.2368C57.785 26.5605 58.2391 26.3514 58.5996 25.9622C58.9601 25.573 59.191 25.1189 59.2918 24.5999C59.3932 24.081 59.4435 23.4106 59.4435 22.5889V18.1127Z" fill="#2F3239"/>
<path d="M77.3752 23.3241V18.1127C77.3752 17.7523 77.1875 17.5649 76.8126 17.5505H69.2416C68.9674 17.5649 68.7299 17.6875 68.5278 17.9181C68.3256 18.1344 68.1745 18.3938 68.0737 18.6966C67.9867 18.9849 67.9435 19.2804 67.9435 19.5832C67.9435 19.8715 67.9867 20.167 68.0737 20.4697C68.1745 20.758 68.3256 21.0175 68.5278 21.2482C68.7299 21.4644 68.9674 21.5726 69.2416 21.5726H74.7792C75.1829 21.5726 75.5218 21.7167 75.7959 22.0051C76.0844 22.2789 76.2284 22.6177 76.2284 23.0214C76.2284 23.425 76.0844 23.7638 75.7959 24.0377C75.5218 24.326 75.1829 24.4702 74.7792 24.4702H69.3279C68.3184 24.4557 67.4823 24.1746 66.8188 23.6268C66.1698 23.0646 65.7014 22.4375 65.4128 21.7455C65.1387 21.0392 65.002 20.3112 65.002 19.5615C65.002 18.8407 65.1459 18.1344 65.4344 17.4424C65.723 16.736 66.1914 16.1089 66.8404 15.5611C67.4895 14.9989 68.4486 14.6961 69.7172 14.6529H78.8028C79.2065 14.6529 79.5526 14.7898 79.8411 15.0637C80.1296 15.3232 80.2808 15.6548 80.2952 16.0585V23.3241C80.2952 23.7277 80.144 24.0665 79.8411 24.3404C79.5526 24.5999 79.2065 24.7296 78.8028 24.7296C77.9373 24.6576 77.4616 24.1891 77.3752 23.3241Z" fill="#2F3239"/>
<path d="M89.9862 14.3285C90.736 14.3285 91.4714 14.415 92.1924 14.588C92.9278 14.761 93.6278 15.0205 94.2906 15.3665C94.954 15.698 95.5382 16.1449 96.0433 16.7071C96.5622 17.2694 96.8435 17.9397 96.8867 18.7182V23.3241C96.8003 24.1891 96.324 24.6576 95.4591 24.7296C95.0554 24.7296 94.7021 24.5999 94.3992 24.3404C94.1106 24.0665 93.9667 23.7277 93.9667 23.3241V19.3885C93.9373 18.9416 93.7645 18.574 93.4472 18.2857C93.1443 17.983 92.7982 17.7451 92.4089 17.5721C92.034 17.3991 91.6376 17.2694 91.2195 17.1829C90.8152 17.0964 90.4043 17.0531 89.9862 17.0531C89.5681 17.0531 89.1501 17.0964 88.7314 17.1829C88.3277 17.2694 87.9312 17.3991 87.5419 17.5721C87.167 17.7451 86.8209 17.983 86.5036 18.2857C86.2007 18.574 86.0352 18.9416 86.0058 19.3885V23.3241C85.9338 24.1891 85.4653 24.6576 84.5998 24.7296C84.1961 24.7296 83.8428 24.5999 83.5399 24.3404C83.2519 24.0665 83.1074 23.7277 83.1074 23.3241V18.7182C83.1506 17.9397 83.4247 17.2694 83.9292 16.7071C84.4342 16.1449 85.0185 15.698 85.6819 15.3665C86.3447 15.0205 87.0369 14.761 87.7585 14.588C88.4939 14.415 89.2364 14.3285 89.9862 14.3285Z" fill="#2F3239"/>
<path d="M104.327 11.366C104.731 11.366 105.078 11.503 105.365 11.7769C105.654 12.0364 105.806 12.3679 105.82 12.7716V14.6529H113.175C113.578 14.6529 113.924 14.7898 114.213 15.0637C114.487 15.352 114.624 15.698 114.624 16.1017C114.624 16.5054 114.48 16.8513 114.191 17.1396C113.917 17.4135 113.578 17.5505 113.175 17.5505H105.82V17.983C105.806 18.574 105.842 19.1218 105.928 19.6264C106.029 20.1165 106.26 20.5562 106.62 20.9455C106.981 21.3347 107.435 21.5437 107.983 21.5726H113.261C113.665 21.5869 113.996 21.7383 114.256 22.0266C114.53 22.3149 114.667 22.6609 114.667 23.0646C114.653 23.4538 114.509 23.7854 114.235 24.0593C113.975 24.3188 113.65 24.4557 113.261 24.4702H107.248C106.238 24.4125 105.402 24.0737 104.739 23.4538C104.09 22.8195 103.621 22.0483 103.333 21.14C103.059 20.2318 102.914 19.266 102.9 18.2425V17.5505H100.412C100.008 17.5505 99.6695 17.4064 99.3954 17.118C99.1069 16.8441 98.9629 16.5054 98.9629 16.1017C98.9629 15.698 99.0997 15.3592 99.3738 15.0854C99.6623 14.797 100.008 14.6529 100.412 14.6529H102.9V12.7716C102.914 12.3823 103.059 12.058 103.333 11.7985C103.606 11.5246 103.938 11.3804 104.327 11.366Z" fill="#2F3239"/>
<path d="M118.237 14.4366C118.627 14.451 118.958 14.5952 119.232 14.8691C119.506 15.1286 119.651 15.453 119.665 15.8422V23.3241C119.579 24.1891 119.102 24.6576 118.237 24.7296C117.833 24.7296 117.48 24.5999 117.177 24.3404C116.889 24.0665 116.744 23.7277 116.744 23.3241V15.8422C116.759 15.4386 116.911 15.107 117.199 14.8475C117.487 14.5736 117.833 14.4366 118.237 14.4366ZM116.42 11.6255C116.42 11.2219 116.593 10.8759 116.939 10.5876C117.285 10.2992 117.704 10.1551 118.194 10.1551C118.684 10.1551 119.102 10.2992 119.448 10.5876C119.795 10.8759 119.968 11.2219 119.968 11.6255C119.968 12.0436 119.795 12.3968 119.448 12.6851C119.102 12.9734 118.684 13.1176 118.194 13.1176C117.704 13.1176 117.285 12.9734 116.939 12.6851C116.593 12.3968 116.42 12.0436 116.42 11.6255Z" fill="#2F3239"/>
</g>
<defs>
<clipPath id="clip0_3_229">
<rect width="120" height="39.802" fill="white" transform="translate(0 0.59901)"/>
</clipPath>
</defs>
</svg>
